<svg width="24" height="24" viewBox="0 0 24 24" fill="none" xmlns="http://www.w3.org/2000/svg">
<path d="M5.4194 7.89111H0.404465V23.8834H5.4194V7.89111Z" fill="#E66234"/>
<path d="M18.9851 7.54462C18.8002 7.52151 18.6038 7.50996 18.4074 7.4984C15.5995 7.38285 14.0164 9.04679 13.4618 9.76321C13.3116 9.95964 13.2422 10.0752 13.2422 10.0752V7.9375H8.44684V23.9298H13.2422H13.4618C13.4618 22.3005 13.4618 20.6828 13.4618 19.0535C13.4618 18.1753 13.4618 17.2972 13.4618 16.419C13.4618 15.3328 13.3809 14.1773 13.924 13.1835C14.3862 12.3516 15.2181 11.9356 16.1541 11.9356C18.9273 11.9356 18.9851 14.443 18.9851 14.6741C18.9851 14.6857 18.9851 14.6972 18.9851 14.6972V23.9991H24.0001V13.5648C24.0001 9.99431 22.1859 7.89128 18.9851 7.54462Z" fill="#E66234"/>
<path d="M2.91189 5.82281C4.52008 5.82281 5.82379 4.51911 5.82379 2.91092C5.82379 1.30272 4.52008 -0.000976562 2.91189 -0.000976562C1.30369 -0.000976562 0 1.30272 0 2.91092C0 4.51911 1.30369 5.82281 2.91189 5.82281Z" fill="#E66234"/>
</svg>
