<svg width="21" height="24" viewBox="0 0 21 24" fill="none" xmlns="http://www.w3.org/2000/svg">
<path d="M15.3438 0.912002L14.7854 -0.000976562H11.406V8.2218L11.3945 16.2536C11.4002 16.3133 11.406 16.3789 11.406 16.4386C11.406 18.4495 9.82856 20.0905 7.88268 20.0905C5.93679 20.0905 4.35936 18.4555 4.35936 16.4386C4.35936 14.4277 5.93679 12.7867 7.88268 12.7867C8.28567 12.7867 8.67715 12.8643 9.03985 12.9955V8.9856C8.66564 8.91996 8.27991 8.88415 7.88268 8.88415C3.87001 8.89012 0.600006 12.2795 0.600006 16.4446C0.600006 20.6097 3.87001 23.999 7.88843 23.999C11.9069 23.999 15.1769 20.6097 15.1769 16.4446V6.89112C16.6334 8.40081 18.516 9.87471 20.6 10.3461V6.24666C18.3375 5.20837 16.0865 2.14124 15.3438 0.912002Z" fill="#E66234"/>
</svg>
