<svg width="18" height="18" viewBox="0 0 18 18" fill="none" xmlns="http://www.w3.org/2000/svg">
<path fill-rule="evenodd" clip-rule="evenodd" d="M11.052 12.4459C9.70411 13.5229 7.99507 14.0428 6.27585 13.899C4.55662 13.7552 2.95771 12.9585 1.80751 11.6727C0.657307 10.3868 0.043129 8.70931 0.0911151 6.98474C0.139101 5.26018 0.845608 3.61944 2.06553 2.39952C3.28546 1.17959 4.92619 0.473086 6.65076 0.425099C8.37532 0.377113 10.0528 0.991291 11.3387 2.14149C12.6246 3.29169 13.4212 4.8906 13.565 6.60983C13.7088 8.32906 13.1889 10.0381 12.112 11.3859L17.268 16.5409C17.3416 16.6096 17.4007 16.6924 17.4417 16.7844C17.4827 16.8764 17.5048 16.9757 17.5065 17.0764C17.5083 17.1771 17.4898 17.2772 17.4521 17.3705C17.4144 17.4639 17.3582 17.5488 17.287 17.62C17.2158 17.6912 17.1309 17.7473 17.0376 17.7851C16.9442 17.8228 16.8441 17.8413 16.7434 17.8395C16.6427 17.8378 16.5434 17.8157 16.4514 17.7747C16.3594 17.7337 16.2766 17.6746 16.208 17.6009L11.052 12.4459ZM3.12596 10.8839C2.392 10.1499 1.89211 9.21477 1.68947 8.19671C1.48683 7.17866 1.59053 6.12338 1.98747 5.16424C2.38441 4.20511 3.05677 3.38516 3.91957 2.80804C4.78238 2.23092 5.7969 1.92252 6.83493 1.92183C7.87296 1.92113 8.88789 2.22816 9.75147 2.80412C10.6151 3.38008 11.2885 4.19911 11.6867 5.15771C12.085 6.11632 12.1901 7.17145 11.9888 8.18978C11.7876 9.20811 11.2889 10.1439 10.556 10.8789L10.551 10.8839L10.546 10.8879C9.56105 11.8706 8.22638 12.4221 6.83513 12.4213C5.44387 12.4206 4.1098 11.8676 3.12596 10.8839Z" fill="#2E2E2E"/>
</svg>
