<svg width="30" height="30" viewBox="0 0 30 30" fill="none" xmlns="http://www.w3.org/2000/svg">
<path fill-rule="evenodd" clip-rule="evenodd" d="M20.9997 3H8.99986C5.7002 3 2.99994 5.70026 2.99994 8.99992V21.0003C2.99994 24.2991 5.7002 27.0003 8.99986 27.0003H20.9997C24.2994 27.0003 26.9996 24.2991 26.9996 21.0003V8.99992C26.9996 5.70026 24.2994 3 20.9997 3ZM24.9995 21.0003C24.9995 23.2053 23.2059 25.0002 20.9997 25.0002H8.99986C6.7946 25.0002 5.00001 23.2053 5.00001 21.0003V8.99992C5.00001 6.79436 6.7946 5.00007 8.99986 5.00007H20.9997C23.2059 5.00007 24.9995 6.79436 24.9995 8.99992V21.0003ZM21.5009 9.99996C22.3293 9.99996 23.0009 9.3284 23.0009 8.49998C23.0009 7.67156 22.3293 7 21.5009 7C20.6725 7 20.0009 7.67156 20.0009 8.49998C20.0009 9.3284 20.6725 9.99996 21.5009 9.99996ZM8.99973 14.9997C8.99973 11.6856 11.6853 8.99979 14.9997 8.99979C18.3131 8.99979 20.9996 11.6856 20.9996 14.9997C20.9996 18.3126 18.3131 21.0002 14.9997 21.0002C11.6853 21.0002 8.99973 18.3126 8.99973 14.9997ZM10.9998 14.9997C10.9998 17.2092 12.7908 19.0001 14.9997 19.0001C17.2085 19.0001 18.9995 17.2092 18.9995 14.9997C18.9995 12.7902 17.2085 10.9999 14.9997 10.9999C12.7908 10.9999 10.9998 12.7902 10.9998 14.9997Z" fill="#E66234"/>
</svg>
