<svg width="20" height="20" viewBox="0 0 20 20" fill="none" xmlns="http://www.w3.org/2000/svg">
<path d="M5.72 14.4554L7.481 13.9474L18.084 3.21736C18.1676 3.13165 18.2142 3.01649 18.2136 2.89674C18.2131 2.777 18.1654 2.66227 18.081 2.57736L17.446 1.93536C17.405 1.89319 17.3559 1.85963 17.3018 1.83662C17.2477 1.8136 17.1895 1.80161 17.1306 1.80133C17.0718 1.80105 17.0135 1.81249 16.9591 1.83499C16.9048 1.85749 16.8554 1.89059 16.814 1.93236L6.239 12.6344L5.72 14.4554ZM18.703 0.663358L19.338 1.30636C20.214 2.19336 20.222 3.62436 19.354 4.50236L8.428 15.5604L4.664 16.6444C4.55021 16.6763 4.43123 16.6856 4.31386 16.6716C4.1965 16.6576 4.08303 16.6206 3.97996 16.5628C3.87688 16.5049 3.78621 16.4273 3.71313 16.3344C3.64004 16.2415 3.58597 16.1352 3.554 16.0214C3.50496 15.8564 3.50426 15.6807 3.552 15.5154L4.647 11.6754L15.544 0.646358C15.7512 0.437716 15.9979 0.27242 16.2696 0.16011C16.5414 0.047801 16.8328 -0.00927341 17.1269 -0.00778409C17.4209 -0.00629476 17.7117 0.0537285 17.9823 0.168785C18.2529 0.283841 18.4979 0.452628 18.703 0.663358ZM7.184 1.81636C7.68 1.81636 8.082 2.22336 8.082 2.72536C8.08279 2.84403 8.06018 2.96169 8.01547 3.07161C7.97076 3.18154 7.90481 3.28157 7.82141 3.36599C7.73801 3.45041 7.63879 3.51757 7.52942 3.56362C7.42004 3.60967 7.30267 3.6337 7.184 3.63436H3.592C2.6 3.63436 1.796 4.44836 1.796 5.45136V16.3574C1.796 17.3614 2.6 18.1754 3.592 18.1754H14.368C15.36 18.1754 16.165 17.3614 16.165 16.3574V12.7224C16.165 12.2204 16.567 11.8134 17.063 11.8134C17.559 11.8134 17.961 12.2204 17.961 12.7234V16.3574C17.961 18.3654 16.352 19.9934 14.368 19.9934H3.592C1.608 19.9934 0 18.3654 0 16.3574V5.45136C0 3.44436 1.608 1.81636 3.592 1.81636H7.184Z" fill="black"/>
</svg>
