<svg width="1280" height="405" viewBox="0 0 1280 405" fill="none" xmlns="http://www.w3.org/2000/svg">
<rect y="-0.000732422" width="1279.1" height="400" rx="40" fill="#FBCE6F"/>
<g clip-path="url(#clip0_2040_14)">
<path d="M1052.16 320.052C1056.68 315.361 1156.48 244.727 1156.48 244.727L1189.21 283.36L1052.16 320.052Z" fill="#8C3C20" fill-opacity="0.2"/>
<path d="M1029.96 232.37C1034.5 230.722 1117.82 208.269 1117.82 208.269L1122.24 249.792L1029.96 232.37Z" fill="#8C3C20" fill-opacity="0.2"/>
</g>
<g clip-path="url(#clip1_2040_14)">
<path d="M485 384.266L528.2 341.066" stroke="white" stroke-width="2" stroke-miterlimit="10" stroke-linecap="round" stroke-linejoin="round"/>
<path d="M661.4 404.466L672.2 393.666" stroke="white" stroke-miterlimit="10" stroke-linecap="round" stroke-linejoin="round"/>
</g>
<g clip-path="url(#clip2_2040_14)">
<path d="M227.501 311.052C222.982 306.361 123.189 235.727 123.189 235.727L90.4526 274.36L227.501 311.052Z" fill="#8C3C20" fill-opacity="0.2"/>
<path d="M249.705 223.37C245.166 221.722 161.85 199.269 161.85 199.269L157.428 240.792L249.705 223.37Z" fill="#8C3C20" fill-opacity="0.2"/>
</g>
<defs>
<clipPath id="clip0_2040_14">
<rect width="159.295" height="129.136" fill="white" transform="translate(1070.92 174.866) rotate(35.4615)"/>
</clipPath>
<clipPath id="clip1_2040_14">
<rect width="314.9" height="145.1" fill="white" transform="translate(484 259.866)"/>
</clipPath>
<clipPath id="clip2_2040_14">
<rect width="159.295" height="129.136" fill="white" transform="matrix(-0.814506 0.580156 0.580156 0.814506 208.746 165.866)"/>
</clipPath>
</defs>
</svg>
