<svg width="24" height="24" viewBox="0 0 24 24" fill="none" xmlns="http://www.w3.org/2000/svg">
<path d="M19.9885 23.999H4.0115C1.8037 23.999 0 22.1953 0 19.9875V4.01052C0 1.80272 1.8037 -0.000976562 4.0115 -0.000976562H19.9885C22.1963 -0.000976562 24 1.80272 24 4.01052V19.9875C24 22.2052 22.2062 23.999 19.9885 23.999Z" fill="#E66234"/>
<path d="M12.0049 18.1641C10.3589 18.1641 8.81151 17.5234 7.64847 16.3604C6.48543 15.1973 5.84477 13.6499 5.84477 12.0039C5.84477 10.3579 6.48543 8.81048 7.64847 7.64745C8.81151 6.48441 10.3589 5.84375 12.0049 5.84375C13.6509 5.84375 15.1984 6.48441 16.3614 7.64745C17.5244 8.81048 18.1651 10.3579 18.1651 12.0039C18.1651 13.6499 17.5244 15.1973 16.3614 16.3604C15.1885 17.5234 13.6509 18.1641 12.0049 18.1641ZM12.0049 7.15463C9.33389 7.15463 7.15565 9.32301 7.15565 12.0039C7.15565 14.675 9.32403 16.8532 12.0049 16.8532C14.676 16.8532 16.8542 14.6848 16.8542 12.0039C16.8444 9.33287 14.676 7.15463 12.0049 7.15463Z" fill="white"/>
<path d="M19.3658 5.64144C20.0191 5.64144 20.5486 5.11189 20.5486 4.45866C20.5486 3.80543 20.0191 3.27588 19.3658 3.27588C18.7126 3.27588 18.183 3.80543 18.183 4.45866C18.183 5.11189 18.7126 5.64144 19.3658 5.64144Z" fill="white"/>
</svg>
