<svg width="19" height="24" viewBox="0 0 19 24" fill="none" xmlns="http://www.w3.org/2000/svg">
<path fill-rule="evenodd" clip-rule="evenodd" d="M8.11643 16.4015C8.84591 16.426 9.5048 17.4308 11.4344 17.4308C15.0583 17.4553 17.5527 14.5634 18.3292 10.7646C21.0354 -2.39633 2.60998 -3.45019 0.727431 7.38245C0.280326 9.9313 1.00981 12.8723 2.91589 13.8281C4.37486 14.5634 4.46899 12.4556 4.02189 11.5488C2.04521 7.5295 4.42193 3.90228 7.52813 2.87293C10.4461 1.8926 12.5169 2.70138 14.0935 4.39244C16.1172 6.57368 15.1995 12.5047 12.7993 14.3918C11.9521 15.0535 10.399 15.2006 9.59893 14.4163C7.9517 12.8233 10.4931 9.44114 10.1166 6.96581C9.74012 4.51499 6.02209 4.88261 5.83384 8.48532C5.73971 10.3234 6.25741 10.8626 5.85737 12.7007C5.22201 15.6417 3.2924 21.6462 4.65725 23.999C6.65745 23.0187 7.64579 17.1367 8.11643 16.4015Z" fill="#E66234"/>
</svg>
