<svg width="24" height="24" viewBox="0 0 24 24" fill="none" xmlns="http://www.w3.org/2000/svg">
<path d="M4.148 9.175C3.598 9.469 3.25 10.04 3.25 10.668V20.053C3.25 21.003 4.03 21.75 4.964 21.75H17.485C18.064 21.75 18.509 21.346 18.789 21.025C19.106 20.663 19.407 20.178 19.683 19.642C20.24 18.562 20.763 17.148 21.142 15.749C21.518 14.357 21.77 12.917 21.749 11.793C21.739 11.241 21.662 10.683 21.437 10.237C21.19 9.744 20.734 9.355 20.073 9.355H14.823C15.039 8.395 15.333 6.858 15.227 5.487C15.168 4.729 14.981 3.926 14.504 3.298C13.995 2.63 13.227 2.25 12.222 2.25C11.64 2.25 11.096 2.56 10.807 3.072M10.807 3.072L9.527 5.338C9.015 6.244 8.227 6.918 7.269 7.514C6.631 7.911 5.975 8.241 5.296 8.584C4.91081 8.77605 4.52811 8.97307 4.148 9.175" fill="#BFBFBF"/>
</svg>
