<svg width="32" height="32" viewBox="0 0 32 32" fill="none" xmlns="http://www.w3.org/2000/svg">
<path d="M24.7996 29.0833C25.0655 30.0104 23.9944 30.7396 23.2294 30.1523L16.4342 24.9357C16.0831 24.6661 15.5965 24.6595 15.2382 24.9194L8.30969 29.9448C7.52955 30.5107 6.47918 29.7541 6.76876 28.8349L9.45684 20.302C9.5811 19.9076 9.44974 19.4774 9.12635 19.2196L2.25231 13.7404C1.51061 13.1493 1.93175 11.9541 2.88023 11.9585L11.4213 11.9979C11.8531 11.9999 12.2375 11.7245 12.3743 11.3149L15.1651 2.96474C15.4736 2.04157 16.7853 2.05852 17.0698 2.98935L19.6469 11.4191C19.7729 11.8313 20.1489 12.1164 20.5798 12.1265L29.1248 12.3271C30.0726 12.3493 30.4603 13.5549 29.7032 14.1254L22.692 19.409C22.3613 19.6582 22.2184 20.0853 22.3326 20.4833L24.7996 29.0833Z" fill="#FFCC00"/>
</svg>
