<svg width="24" height="24" viewBox="0 0 24 24" fill="none" xmlns="http://www.w3.org/2000/svg">
<path d="M18.8088 22.5417C18.9418 23.0052 18.4063 23.3698 18.0238 23.0761L12.1777 18.5882C12.0021 18.4534 11.7588 18.4501 11.5796 18.58L5.61963 22.903C5.22956 23.1859 4.70437 22.8076 4.84916 22.348L7.14418 15.0629C7.20631 14.8656 7.14064 14.6505 6.97894 14.5216L1.12615 9.85652C0.755305 9.56092 0.965874 8.96334 1.44011 8.96553L8.74689 8.99926C8.96281 9.00025 9.15497 8.86254 9.22341 8.65775L11.6215 1.48237C11.7758 1.02078 12.4316 1.02926 12.5739 1.49468L14.788 8.73695C14.851 8.94305 15.0389 9.08558 15.2544 9.09064L22.5624 9.26218C23.0363 9.2733 23.2301 9.87608 22.8516 10.1614L16.8818 14.6601C16.7164 14.7847 16.645 14.9983 16.7021 15.1973L18.8088 22.5417Z" fill="#BFBFBF"/>
</svg>
