<svg width="20" height="20" viewBox="0 0 20 20" fill="none" xmlns="http://www.w3.org/2000/svg">
<path d="M9.99988 15C10.2832 15 10.5209 14.904 10.7129 14.712C10.9049 14.52 11.0005 14.2827 10.9999 14C10.9992 13.7173 10.9032 13.48 10.7119 13.288C10.5205 13.096 10.2832 13 9.99988 13C9.71655 13 9.47921 13.096 9.28788 13.288C9.09655 13.48 9.00055 13.7173 8.99988 14C8.99921 14.2827 9.09521 14.5203 9.28788 14.713C9.48055 14.9057 9.71788 15.0013 9.99988 15ZM8.99988 11H10.9999V5H8.99988V11ZM9.99988 20C8.61655 20 7.31655 19.7373 6.09988 19.212C4.88321 18.6867 3.82488 17.9743 2.92488 17.075C2.02488 16.1757 1.31255 15.1173 0.787879 13.9C0.263213 12.6827 0.000545862 11.3827 -0.000120804 10C-0.000787471 8.61733 0.261879 7.31733 0.787879 6.1C1.31388 4.88267 2.02621 3.82433 2.92488 2.925C3.82355 2.02567 4.88188 1.31333 6.09988 0.788C7.31788 0.262667 8.61788 0 9.99988 0C11.3819 0 12.6819 0.262667 13.8999 0.788C15.1179 1.31333 16.1762 2.02567 17.0749 2.925C17.9735 3.82433 18.6862 4.88267 19.2129 6.1C19.7395 7.31733 20.0019 8.61733 19.9999 10C19.9979 11.3827 19.7352 12.6827 19.2119 13.9C18.6885 15.1173 17.9762 16.1757 17.0749 17.075C16.1735 17.9743 15.1152 18.687 13.8999 19.213C12.6845 19.739 11.3845 20.0013 9.99988 20Z" fill="#FFCC00"/>
</svg>
