<svg width="24" height="25" viewBox="0 0 24 25" fill="none" xmlns="http://www.w3.org/2000/svg">
<path d="M19.9885 24.5H4.0115C1.8037 24.5 0 22.6963 0 20.4885V4.5115C0 2.3037 1.8037 0.5 4.0115 0.5H19.9885C22.1963 0.5 24 2.3037 24 4.5115V20.4885C24 22.7062 22.2062 24.5 19.9885 24.5Z" fill="#E66234"/>
<path d="M12.0049 18.6651C10.3589 18.6651 8.81146 18.0244 7.64842 16.8614C6.48538 15.6983 5.84473 14.1509 5.84473 12.5049C5.84473 10.8589 6.48538 9.31146 7.64842 8.14842C8.81146 6.98538 10.3589 6.34473 12.0049 6.34473C13.6509 6.34473 15.1983 6.98538 16.3614 8.14842C17.5244 9.31146 18.1651 10.8589 18.1651 12.5049C18.1651 14.1509 17.5244 15.6983 16.3614 16.8614C15.1885 18.0244 13.6509 18.6651 12.0049 18.6651ZM12.0049 7.65561C9.33384 7.65561 7.15561 9.82399 7.15561 12.5049C7.15561 15.1759 9.32399 17.3542 12.0049 17.3542C14.6759 17.3542 16.8542 15.1858 16.8542 12.5049C16.8443 9.83384 14.6759 7.65561 12.0049 7.65561Z" fill="white"/>
<path d="M19.3659 6.14193C20.0191 6.14193 20.5487 5.61238 20.5487 4.95915C20.5487 4.30592 20.0191 3.77637 19.3659 3.77637C18.7127 3.77637 18.1831 4.30592 18.1831 4.95915C18.1831 5.61238 18.7127 6.14193 19.3659 6.14193Z" fill="white"/>
</svg>
