<svg width="32" height="32" viewBox="0 0 32 32" fill="none" xmlns="http://www.w3.org/2000/svg">
<path d="M25.2179 30.5417C25.3509 31.0052 24.8153 31.3698 24.4328 31.0761L16.1383 24.7085C15.9627 24.5737 15.7194 24.5704 15.5402 24.7003L7.08442 30.8336C6.69435 31.1165 6.16916 30.7382 6.31395 30.2786L9.55995 19.9747C9.62208 19.7775 9.5564 19.5624 9.39471 19.4335L1.12615 12.8428C0.755304 12.5472 0.965874 11.9496 1.44011 11.9518L11.7831 11.9996C11.999 12.0006 12.1912 11.8628 12.2597 11.6581L15.6605 1.48237C15.8148 1.02079 16.4706 1.02926 16.6129 1.49468L19.7525 11.7643C19.8155 11.9704 20.0034 12.113 20.2189 12.118L30.5624 12.3608C31.0363 12.3719 31.2301 12.9747 30.8516 13.26L22.4175 19.6158C22.2522 19.7404 22.1807 19.954 22.2378 20.153L25.2179 30.5417Z" fill="#FFCC00"/>
</svg>
